# xmcd
#
# Track frame offsets:
#	150
#	22052
#	43497
#	65583
#	88252
#	112543
#	153717
#	177145
#	207961
#	231241
#	253081
#	273129
#
# Disc length: 3911 seconds
#
# Revision: 0
# Processed by: cddbd v1.5.2PL0 Copyright (c) Steve Scherf et al.
# Submitted via: EasyCDDAExtractor 16.0.9.1
#
DISCID=a80f450c
DTITLE=Various Artist - Mừng Tuổi Mẹ
DYEAR=2015
DGENRE=Pop
TTITLE0=Thu Phương - Bông Vạn Thọ
TTITLE1=Hoài Lâm - Chiều Xuân Xa Nhà
TTITLE2=Hoàng Nhung - Gặp Mẹ Trong Mơ
TTITLE3=Thiên Tôn and Lam Anh - Lòng Mẹ
TTITLE4=Bằng Kiều - Bông Hồng Cài Áo
TTITLE5=Mai Thiên Vân and Duy Trường - Tân Cổ Mừng Tuổi Mẹ
TTITLE6=Như Quỳnh - Thương Bà Mẹ Huế
TTITLE7=Ngọc Ngữ and Bảo Khánh - Liên Khúc: Xuân Này Con Không Về, Xuân Này Con 
TTITLE7=Về Mẹ ở Đâu
TTITLE8=Tâm Đoan - Quê Hương and Mẹ Hiền
TTITLE9=Trần Thái Hòa - Thư Xuân Hải Ngoại
TTITLE10=Ngọc Anh and Hoàng Anh Khang - Quê Nhà
TTITLE11=Minh Tuyết and Hương Thủy - Cánh Thiệp Đầu Xuân
EXTD=
EXTT0=
EXTT1=
EXTT2=
EXTT3=
EXTT4=
EXTT5=
EXTT6=
EXTT7=
EXTT8=
EXTT9=
EXTT10=
EXTT11=
PLAYORDER=
